<svg width="500" height="500" viewBox="0 0 500 500" fill="none" xmlns="http://www.w3.org/2000/svg">
<rect width="500" height="500" rx="250" fill="#071311"/>
<path d="M396.98 216.737C396.98 226.186 396.719 235.635 396.98 245.083C397.24 250.535 395.026 252.231 389.425 251.867C383.824 251.504 378.224 251.867 372.493 251.867C365.069 251.867 359.207 254.532 354.388 259.741C338.237 276.822 322.086 293.782 305.805 310.741C301.377 315.345 295.516 317.767 288.612 318.01C267.251 318.494 264.907 317.041 265.558 297.053C265.949 284.212 265.558 271.25 265.688 258.409C265.688 253.321 263.735 251.504 258.395 251.867C251.231 252.231 245.63 254.775 240.941 259.741C225.311 276.338 209.421 292.934 193.661 309.409C186.106 317.283 169.955 321.281 159.666 317.646C154.586 315.829 152.111 312.195 152.242 306.865C152.502 291.117 152.242 275.49 152.242 259.741C152.242 252.352 151.981 251.988 143.645 251.988C132.313 251.988 121.112 251.746 109.911 251.988C104.44 252.11 102.877 250.292 103.007 245.326C103.398 233.212 103.007 221.219 103.138 209.105C103.268 193.72 116.293 181.606 132.704 181.485C139.868 181.485 147.032 181.848 154.195 181.364C159.666 181 160.577 183.06 160.577 187.542C160.317 203.654 160.577 219.765 160.577 235.877C160.577 238.905 160.577 241.934 163.703 243.993C167.741 246.779 170.867 245.447 173.863 242.297C187.018 228.487 200.955 215.162 213.198 200.625C228.437 182.817 248.496 179.789 270.768 181.364C274.936 181.727 273.764 184.756 273.894 186.815C273.894 202.321 273.894 217.827 273.894 233.333C273.894 235.15 273.894 236.967 274.024 238.784C274.415 241.813 275.848 244.235 279.104 245.205C282.23 246.053 284.835 245.083 287.18 242.661C300.856 228.124 314.923 213.95 328.469 199.293C339.8 187.057 353.476 180.637 370.93 181.364C377.572 181.606 384.345 181.606 391.118 181.364C395.417 181.243 396.849 182.696 396.849 186.573C396.719 196.627 396.849 206.682 396.849 216.737H396.98Z" fill="#CAEAE5"/>
</svg>
